<svg xmlns="http://www.w3.org/2000/svg" viewBox="0 0 280 360" aria-hidden="true">
  <g fill="#000000" font-family="Georgia, 'Times New Roman', serif" text-anchor="middle">
    <text x="30" y="54" font-size="38" opacity="0.18" transform="rotate(-13 30 54)">♱</text>
    <text x="112" y="32" font-size="24" opacity="0.13" transform="rotate(8 112 32)">♱</text>
    <text x="220" y="72" font-size="46" opacity="0.16" transform="rotate(12 220 72)">♱</text>
    <text x="76" y="126" font-size="28" opacity="0.15" transform="rotate(7 76 126)">♱</text>
    <text x="166" y="146" font-size="42" opacity="0.18" transform="rotate(-16 166 146)">♱</text>
    <text x="258" y="170" font-size="25" opacity="0.13" transform="rotate(4 258 170)">♱</text>
    <text x="26" y="222" font-size="23" opacity="0.13" transform="rotate(-10 26 222)">♱</text>
    <text x="114" y="246" font-size="45" opacity="0.17" transform="rotate(-8 114 246)">♱</text>
    <text x="220" y="272" font-size="30" opacity="0.15" transform="rotate(14 220 272)">♱</text>
    <text x="54" y="338" font-size="42" opacity="0.16" transform="rotate(11 54 338)">♱</text>
    <text x="174" y="336" font-size="24" opacity="0.13" transform="rotate(-5 174 336)">♱</text>
    <text x="270" y="352" font-size="36" opacity="0.17" transform="rotate(-12 270 352)">♱</text>
  </g>
</svg>
